<svg width="48" height="12" viewBox="0 0 48 12" fill="none" xmlns="http://www.w3.org/2000/svg">
<g clip-path="url(#clip0_837_12192)">
<path fill-rule="evenodd" clip-rule="evenodd" d="M21.686 -0.0668284L20.9295 3.34984H18.4594L18.2741 4.19984H20.5127L19.7099 7.79983H17.4405L17.2243 8.83317H19.6481L18.9688 12.0665H13.4883L13.8279 10.5998H18.3976L18.552 9.93317H13.9823L14.3065 8.4665H16.3907L16.545 7.79983H14.4609L14.7851 6.33317H19.1232L19.2776 5.6665H14.9395L15.2791 4.19984H17.3633L17.5176 3.53317H15.4335L15.7577 2.0665H20.3274L20.4818 1.39984H15.9275L16.2517 -0.0668284H21.686ZM27.9384 -0.0668284L27.3363 1.39984H30.4703L30.3313 2.0665H27.0739L26.4718 3.53317H30.0071L29.8373 4.19984H26.2093L26.1167 4.4165L25.8851 -0.0668284H22.6431L22.3189 1.39984H25.1595L25.175 2.0665H22.1645L21.8249 3.53317H25.2213L25.2985 4.19984H21.6705L21.3463 5.6665H23.1835L23.0445 6.33317H21.1919L20.8677 7.79983H22.7203L22.5659 8.4665H20.7134L20.3737 9.93317H22.2263L22.0719 10.5998H20.2193L19.8951 12.0665H22.674L24.0789 5.6665H27.0276L26.7342 6.33317H24.0326L23.9554 7.79983H26.0858L25.8234 8.4665H23.9245L23.8473 9.93317H25.175L24.928 10.5998H23.8164L23.7392 12.0665H25.2059L27.4753 6.59984L27.182 7.79983H29.0191L28.8493 8.4665H27.0121L26.6571 9.93317H28.556L28.3861 10.5998H26.4872L26.1322 12.0665H28.9573L31.7517 -0.0501607H27.9384V-0.0668284ZM29.3587 6.33317H27.5525L27.8149 5.6665H29.4822L29.3587 6.33317ZM37.4175 -0.0668284L38.5753 1.9165L38.1894 3.5165H35.3642L35.4723 3.03317L34.8239 3.04983L34.5151 4.3165H36.1052L37.4792 6.5665L36.6764 10.2832L34.8856 12.0498H31.3039L30.3777 10.5832H35.04L35.8428 9.9165H30.3468L30.671 8.44984H33.5579L33.4344 9.11651H34.0828L34.2063 8.44984H36.167L36.3059 7.78317H32.4772L31.2731 6.3165H36.5375L36.1052 5.64984H31.3039L31.6436 4.18317H33.6197L33.7741 3.5165H31.798L32.1376 2.04983H37.6182L37.2476 1.38317H32.5236L34.1446 -0.0834961H37.4175V-0.0668284Z" fill="#808588"/>
<path fill-rule="evenodd" clip-rule="evenodd" d="M5.49153 5.64984H13.5811L13.9053 4.18317H4.08665L5.49153 5.64984ZM11.6977 12.0498H12.1299L12.4541 10.5832H10.2928L11.6977 12.0498ZM3.40737 3.5165H14.0443L14.3685 2.04984H2.01794L3.40737 3.5165ZM1.35409 1.38317H14.5383L14.8625 -0.0834961H-0.0507812L1.35409 1.38317ZM40.6443 -0.0668284L40.3509 1.39984H43.5775V-0.0668284H40.6443ZM39.9032 3.5165H43.5621V2.04984H40.1966L39.9032 3.5165ZM39.471 5.64984H43.5621V4.18317H39.7643L39.471 5.64984ZM7.56024 7.78317H13.1026L13.4268 6.3165H6.17081L7.56024 7.78317ZM9.62896 9.9165H12.624L12.9482 8.44984H8.22409L9.62896 9.9165Z" fill="#D9DEE0"/>
<path d="M46.0692 4.18975L45.7759 5.64648H42.8427V4.18975H46.0692Z" fill="#D9DEE0"/>
<path d="M42.8819 2.05153H46.5407L46.2236 3.51908H42.8581L42.8819 2.05153Z" fill="#D9DEE0"/>
<path d="M42.8581 -0.000319004H46.9492L46.6559 1.4061H42.8581V-0.000319004Z" fill="#D9DEE0"/>
</g>
<defs>
<clipPath id="clip0_837_12192">
<rect width="47" height="12" fill="white" transform="translate(0.0117188)"/>
</clipPath>
</defs>
</svg>
