<svg width="42" height="12" viewBox="0 0 42 12" fill="none" xmlns="http://www.w3.org/2000/svg">
<g clip-path="url(#clip0_837_12168)">
<path fill-rule="evenodd" clip-rule="evenodd" d="M11.3177 2.2831e-07V0.0052404C11.3125 0.0052404 9.67713 1.99897e-07 9.24104 1.57729C8.84128 3.02358 7.71471 7.01659 7.68356 7.12664H7.37206C7.37206 7.12664 6.21953 3.04454 5.81459 1.57205C5.37849 -0.00523999 3.73795 2.2831e-07 3.73795 2.2831e-07H0V12H3.73795V4.87336H3.8937H4.04944L6.22991 12H8.82571L11.0062 4.8786H11.3177V12H15.0556V2.2831e-07H11.3177Z" fill="#808588"/>
<path fill-rule="evenodd" clip-rule="evenodd" d="M24.9706 0C24.9706 0 23.8752 0.0995633 23.3612 1.25764L20.7135 7.12664H20.402V0H16.6641V12H20.1943C20.1943 12 21.3417 11.8952 21.8557 10.7424L24.4515 4.87336H24.7629V12H28.5009V0H24.9706Z" fill="#808588"/>
<path fill-rule="evenodd" clip-rule="evenodd" d="M30.1641 5.44971V11.9999H33.902V8.1746H37.9515C39.7166 8.1746 41.2118 7.03748 41.7673 5.44971H30.1641Z" fill="#808588"/>
<path fill-rule="evenodd" clip-rule="evenodd" d="M37.9504 0H29.6387C30.054 2.28472 31.7517 4.11878 33.9477 4.71616C34.4461 4.8524 34.9704 4.92576 35.5104 4.92576H41.9168C41.9739 4.65328 41.9999 4.37555 41.9999 4.08734C41.9999 1.82882 40.188 0 37.9504 0Z" fill="#D9DEE0"/>
</g>
<defs>
<clipPath id="clip0_837_12168">
<rect width="42" height="12" fill="white"/>
</clipPath>
</defs>
</svg>
