<svg width="18" height="12" viewBox="0 0 18 12" fill="none" xmlns="http://www.w3.org/2000/svg">
<g clip-path="url(#clip0_837_12184)">
<path d="M10.7596 2.01318H6.32227V9.98726H10.7596V2.01318Z" fill="#94989A"/>
<path d="M6.60419 5.99999C6.60349 5.23203 6.77752 4.47397 7.11309 3.78321C7.44867 3.09245 7.937 2.48709 8.54112 2.01295C7.79301 1.42491 6.89454 1.05922 5.94841 0.957674C5.00228 0.856126 4.04668 1.02281 3.19081 1.4387C2.33494 1.85458 1.61334 2.50287 1.1085 3.30947C0.603655 4.11607 0.335938 5.04843 0.335938 5.99999C0.335938 6.95155 0.603655 7.88392 1.1085 8.69051C1.61334 9.49711 2.33494 10.1454 3.19081 10.5613C4.04668 10.9772 5.00228 11.1439 5.94841 11.0423C6.89454 10.9408 7.79301 10.5751 8.54112 9.98703C7.93701 9.51289 7.44868 8.90753 7.1131 8.21677C6.77753 7.52601 6.6035 6.76795 6.60419 5.99999Z" fill="#808588"/>
<path d="M16.746 5.99999C16.746 6.95154 16.4783 7.8839 15.9735 8.6905C15.4687 9.4971 14.7471 10.1454 13.8912 10.5613C13.0354 10.9772 12.0798 11.1439 11.1337 11.0423C10.1876 10.9408 9.28911 10.5751 8.54102 9.98703C9.1446 9.51242 9.63256 8.90696 9.96808 8.2163C10.3036 7.52565 10.4779 6.76783 10.4779 5.99999C10.4779 5.23215 10.3036 4.47433 9.96808 3.78368C9.63256 3.09303 9.1446 2.48757 8.54102 2.01295C9.28911 1.42491 10.1876 1.05922 11.1337 0.957673C12.0798 0.856126 13.0354 1.02282 13.8912 1.43871C14.7471 1.85459 15.4687 2.50288 15.9735 3.30948C16.4783 4.11608 16.746 5.04844 16.746 5.99999Z" fill="#D9DEE0"/>
<path d="M16.262 9.14264V8.97938H16.3278V8.94612H16.1602V8.97938H16.226V9.14264H16.262ZM16.5875 9.14264V8.9458H16.5361L16.477 9.08119L16.4178 8.9458H16.3664V9.14264H16.4027V8.99416L16.4581 9.12217H16.4958L16.5512 8.99384V9.14264H16.5875Z" fill="#808588"/>
</g>
<defs>
<clipPath id="clip0_837_12184">
<rect width="16.9341" height="12" fill="white" transform="translate(0.078125)"/>
</clipPath>
</defs>
</svg>
