<svg width="416" height="404" viewBox="0 0 416 404" fill="none" xmlns="http://www.w3.org/2000/svg">
<g clip-path="url(#clip0_526_39042)">
<rect width="416" height="404" fill="#FBFBFB"/>
<path d="M143.444 119.019V100.578H125V119.019H143.444Z" fill="#D9DEE0"/>
<path d="M290.999 119.019V100.578H272.555V119.019H290.999Z" fill="#D9DEE0"/>
<path d="M217.224 119.019V100.578H161.891V119.019H217.224Z" fill="#D9DEE0"/>
<path d="M180.333 192.783V174.342H125V192.783H180.333Z" fill="#D9DEE0"/>
<path d="M291.001 266.546V248.105H235.668V266.546H291.001Z" fill="#D9DEE0"/>
<path d="M143.444 155.901V137.46H125V155.901H143.444Z" fill="#D9DEE0"/>
<path d="M143.444 229.664V211.224H125V229.664H143.444Z" fill="#D9DEE0"/>
<path d="M143.444 266.546V248.105H125V266.546H143.444Z" fill="#D9DEE0"/>
<path d="M143.444 303.428V284.987H125V303.428H143.444Z" fill="#D9DEE0"/>
<path d="M217.222 155.901V137.46H198.777V155.901H217.222Z" fill="#D9DEE0"/>
<path d="M290.999 229.664V211.224H272.555V229.664H290.999Z" fill="#D9DEE0"/>
<path d="M290.999 303.428V284.987H272.555V303.428H290.999Z" fill="#D9DEE0"/>
<path d="M180.335 155.901V137.46H161.891V155.901H180.335Z" fill="#D9DEE0"/>
<path d="M180.335 229.664V211.224H161.891V229.664H180.335Z" fill="#D9DEE0"/>
<path d="M254.112 229.664V211.224H235.668V229.664H254.112Z" fill="#D9DEE0"/>
<path d="M254.112 303.428V284.987H235.668V303.428H254.112Z" fill="#D9DEE0"/>
<path d="M217.222 266.546V248.105H198.777V266.546H217.222Z" fill="#D9DEE0"/>
<path d="M217.222 303.428V284.987H198.777V303.428H217.222Z" fill="#D9DEE0"/>
<path d="M290.999 155.901V137.46H272.555V155.901H290.999Z" fill="#D9DEE0"/>
<path d="M290.999 192.783V174.342H272.555V192.783H290.999Z" fill="#D9DEE0"/>
<path d="M254.112 119.019V100.578H235.668V119.019H254.112Z" fill="#D9DEE0"/>
<path d="M254.112 192.783V137.46H235.668V192.783H254.112Z" fill="#D9DEE0"/>
<path d="M217.222 229.664V174.342H198.777V229.664H217.222Z" fill="#D9DEE0"/>
<path d="M180.335 303.428V248.105H161.891V303.428H180.335Z" fill="#D9DEE0"/>
<path d="M254.112 45.2552V26.8142H235.668V45.2552H254.112Z" fill="#D9DEE0"/>
<path d="M180.335 8.37333V-10.0676H161.891V8.37333H180.335Z" fill="#D9DEE0"/>
<path d="M254.111 8.37333V-10.0676H198.777V8.37333H254.111Z" fill="#D9DEE0"/>
<path d="M254.112 82.137V63.6961H235.668V82.137H254.112Z" fill="#D9DEE0"/>
<path d="M290.999 8.37333V-10.0676H272.555V8.37333H290.999Z" fill="#D9DEE0"/>
<path d="M180.335 45.2552V26.8142H161.891V45.2552H180.335Z" fill="#D9DEE0"/>
<path d="M143.444 82.137V63.6961H125V82.137H143.444Z" fill="#D9DEE0"/>
<path d="M180.335 82.137V63.6961H161.891V82.137H180.335Z" fill="#D9DEE0"/>
<path d="M143.444 45.2552V-10.0676H125V45.2552H143.444Z" fill="#D9DEE0"/>
<path d="M290.999 82.137V26.8142H272.555V82.137H290.999Z" fill="#D9DEE0"/>
<path d="M217.222 82.137V26.8142H198.777V82.137H217.222Z" fill="#D9DEE0"/>
<path d="M180.335 340.31V321.869H161.891V340.31H180.335Z" fill="#D9DEE0"/>
<path d="M217.222 340.31V321.869H198.777V340.31H217.222Z" fill="#D9DEE0"/>
<path d="M180.335 414.073V395.633H161.891V414.073H180.335Z" fill="#D9DEE0"/>
<path d="M143.444 414.073V395.633H125V414.073H143.444Z" fill="#D9DEE0"/>
<path d="M254.111 414.073V395.633H198.777V414.073H254.111Z" fill="#D9DEE0"/>
<path d="M180.335 377.192V358.751H161.891V377.192H180.335Z" fill="#D9DEE0"/>
<path d="M217.222 377.192V358.751H198.777V377.192H217.222Z" fill="#D9DEE0"/>
<path d="M290.999 377.192V358.751H272.555V377.192H290.999Z" fill="#D9DEE0"/>
<path d="M290.999 414.073V395.633H272.555V414.073H290.999Z" fill="#D9DEE0"/>
<path d="M290.999 340.31V321.869H272.555V340.31H290.999Z" fill="#D9DEE0"/>
<path d="M143.444 377.192V321.869H125V377.192H143.444Z" fill="#D9DEE0"/>
<path d="M254.112 377.192V321.869H235.668V377.192H254.112Z" fill="#D9DEE0"/>
</g>
<defs>
<clipPath id="clip0_526_39042">
<rect width="416" height="404" fill="white"/>
</clipPath>
</defs>
</svg>
