<svg width="18" height="18" viewBox="0 0 18 18" fill="none" xmlns="http://www.w3.org/2000/svg">
<g clip-path="url(#clip0_614_32989)">
<path d="M17.8765 13.9701L15.5973 11.2536C16.491 9.66084 16.7777 7.7984 16.4045 6.01063C16.0313 4.22286 15.0234 2.63066 13.5672 1.52843C12.111 0.426191 10.305 -0.111539 8.48307 0.0146589C6.66113 0.140857 4.94649 0.922447 3.65617 2.21492C2.49225 3.37996 1.7401 4.89285 1.51385 6.52406C1.2876 8.15527 1.5996 9.81576 2.4025 11.2536L0.12332 13.9701C0.0639659 14.0409 0.0242358 14.126 0.00810543 14.2169C-0.00802498 14.3079 1.00185e-05 14.4014 0.0314064 14.4883C0.0628027 14.5751 0.116459 14.6522 0.187007 14.7118C0.257555 14.7714 0.342519 14.8115 0.433398 14.8279L2.92598 15.279L3.80277 17.6552C3.83473 17.7419 3.8889 17.8187 3.95988 17.8779C4.03085 17.9371 4.11613 17.9765 4.20718 17.9924C4.29822 18.0082 4.39183 17.9999 4.47862 17.9682C4.56542 17.9364 4.64235 17.8825 4.70172 17.8116L7.15211 14.8912C8.36554 15.1927 9.6343 15.1927 10.8477 14.8912L13.2981 17.8116C13.3575 17.8825 13.4344 17.9364 13.5212 17.9682C13.608 17.9999 13.7016 18.0082 13.7927 17.9924C13.8837 17.9765 13.969 17.9371 14.04 17.8779C14.1109 17.8187 14.1651 17.7419 14.1971 17.6552L15.0739 15.279L17.5664 14.8279C17.6573 14.8115 17.7423 14.7714 17.8128 14.7118C17.8834 14.6522 17.937 14.5751 17.9684 14.4883C17.9998 14.4014 18.0079 14.3079 17.9917 14.2169C17.9756 14.126 17.9359 14.0409 17.8765 13.9701ZM4.47777 16.4377L3.8098 14.6311C3.77814 14.5451 3.72463 14.4688 3.65454 14.4098C3.58444 14.3509 3.50019 14.3111 3.41008 14.2946L1.51516 13.9518L3.01 12.1705C3.20974 12.4278 3.42556 12.6723 3.65617 12.9024C4.34947 13.5979 5.17178 14.1514 6.07703 14.5319L4.47777 16.4377ZM2.49602 7.55867C2.49602 3.97273 5.41398 1.05477 8.99992 1.05477C12.5859 1.05477 15.5038 3.97273 15.5038 7.55867C15.5038 11.1446 12.5859 14.0626 8.99992 14.0626C5.41398 14.0626 2.49602 11.1446 2.49602 7.55867ZM14.5898 14.2946C14.4994 14.3109 14.4149 14.3505 14.3445 14.4095C14.2741 14.4685 14.2204 14.5449 14.1886 14.6311L13.5207 16.4377L11.9225 14.533C12.8279 14.1521 13.6504 13.5983 14.3437 12.9024C14.574 12.6719 14.7894 12.4271 14.9888 12.1694L16.4836 13.9508L14.5898 14.2946Z" fill="#808588"/>
<path d="M10.8618 5.98016L8.51727 8.32602L7.13826 6.94612C7.03638 6.84423 6.89414 6.78331 6.74284 6.77675C6.59154 6.7702 6.44358 6.81855 6.33149 6.91116C6.21941 7.00378 6.15239 7.13308 6.14518 7.27062C6.13797 7.40815 6.19115 7.54266 6.29304 7.64455L8.09466 9.44773C8.14819 9.50132 8.21345 9.54414 8.28627 9.57344C8.35908 9.60275 8.43783 9.61789 8.51746 9.61789C8.59709 9.61789 8.67584 9.60275 8.74865 9.57344C8.82146 9.54414 8.88673 9.50132 8.94026 9.44773L11.707 6.67893C11.7575 6.62848 11.7965 6.56949 11.8219 6.50533C11.8472 6.44117 11.8585 6.3731 11.8549 6.305C11.8513 6.2369 11.833 6.1701 11.8011 6.10843C11.7691 6.04675 11.7241 5.99141 11.6686 5.94555C11.6131 5.89969 11.5482 5.86421 11.4776 5.84115C11.407 5.81809 11.3321 5.80789 11.2572 5.81114C11.1823 5.81438 11.1088 5.83101 11.041 5.86007C10.9731 5.88913 10.9123 5.93005 10.8618 5.9805V5.98016Z" fill="#808588"/>
</g>
<defs>
<clipPath id="clip0_614_32989">
<rect width="18" height="18" fill="white"/>
</clipPath>
</defs>
</svg>
