<svg width="36" height="36" viewBox="0 0 36 36" fill="none" xmlns="http://www.w3.org/2000/svg">
<g clip-path="url(#clip0_1226_12151)">
<path d="M18 22.5C18 23.6935 18.4741 24.8381 19.318 25.682C20.1619 26.5259 21.3065 27 22.5 27C23.6935 27 24.8381 26.5259 25.682 25.682C26.5259 24.8381 27 23.6935 27 22.5C27 21.3065 26.5259 20.1619 25.682 19.318C24.8381 18.4741 23.6935 18 22.5 18C21.3065 18 20.1619 18.4741 19.318 19.318C18.4741 20.1619 18 21.3065 18 22.5Z" stroke="#808588" stroke-width="1.5" stroke-linecap="round" stroke-linejoin="round"/>
<path d="M19.5 26.25V33L22.5 30.75L25.5 33V26.25" stroke="#808588" stroke-width="1.5" stroke-linecap="round" stroke-linejoin="round"/>
<path d="M15 28.5H4.5V7.5L31.5 7.5V28.095H30" stroke="#808588" stroke-width="1.5" stroke-linecap="round" stroke-linejoin="round"/>
<path d="M9 13.5H27" stroke="#808588" stroke-width="1.5" stroke-linecap="round" stroke-linejoin="round"/>
<path d="M9 18H13.5" stroke="#808588" stroke-width="1.5" stroke-linecap="round" stroke-linejoin="round"/>
<path d="M9 22.5H12" stroke="#808588" stroke-width="1.5" stroke-linecap="round" stroke-linejoin="round"/>
</g>
<defs>
<clipPath id="clip0_1226_12151">
<rect width="36" height="36" fill="white"/>
</clipPath>
</defs>
</svg>
