<svg width="20" height="20" viewBox="0 0 20 20" fill="none" xmlns="http://www.w3.org/2000/svg">
<g clip-path="url(#clip0_558_35319)">
<path d="M16.2491 11.31L9.99911 17.5L3.74911 11.31C3.33687 10.9088 3.01215 10.4267 2.7954 9.89387C2.57866 9.36105 2.47458 8.78913 2.48973 8.21412C2.50487 7.6391 2.63891 7.07345 2.88341 6.55279C3.1279 6.03212 3.47756 5.56772 3.91035 5.18882C4.34314 4.80993 4.8497 4.52475 5.39812 4.35124C5.94654 4.17773 6.52495 4.11966 7.09692 4.18067C7.66889 4.24169 8.22203 4.42047 8.72151 4.70576C9.22099 4.99105 9.65598 5.37667 9.99911 5.83834C10.3437 5.38002 10.7792 4.99777 11.2784 4.71551C11.7775 4.43325 12.3295 4.25705 12.8999 4.19794C13.4703 4.13883 14.0467 4.19809 14.5931 4.372C15.1395 4.54591 15.6441 4.83073 16.0754 5.20864C16.5067 5.58655 16.8553 6.04941 17.0995 6.56825C17.3436 7.08709 17.4781 7.65074 17.4944 8.22393C17.5107 8.79712 17.4085 9.3675 17.1942 9.89938C16.98 10.4313 16.6582 10.9132 16.2491 11.315" stroke="#33383A" stroke-linecap="round" stroke-linejoin="round"/>
</g>
<defs>
<clipPath id="clip0_558_35319">
<rect width="20" height="20" fill="white"/>
</clipPath>
</defs>
</svg>
