<svg width="89" height="40" viewBox="0 0 89 40" fill="none" xmlns="http://www.w3.org/2000/svg">
<g clip-path="url(#clip0_837_12206)">
<path d="M31.1492 0H26.6992V4.44444H31.1492V0Z" fill="black"/>
<path d="M40.0496 0H35.5996V4.44444H40.0496V0Z" fill="black"/>
<path d="M89 0H44.5V4.44444H84.55V35.5556H4.45V4.44444H22.25V0H0V40H89V0Z" fill="black"/>
<path d="M73.5741 25.6887C72.1056 26.7702 70.3108 27.3035 68.1154 27.3035H66.7508V12.6961H68.1154C70.2959 12.6961 72.0908 13.2294 73.5741 14.3405C75.0426 15.422 75.7991 17.2887 75.7991 19.985C75.7843 22.6961 75.0426 24.5776 73.5741 25.6887ZM69.4504 8.88867H62.3008V31.1109H69.4504C75.1019 31.1109 80.0859 27.4961 80.0859 19.9998C80.0859 12.5035 75.1019 8.88867 69.4504 8.88867Z" fill="black"/>
<path d="M22.2504 8.88867L17.8004 25.3331L13.3504 8.88867H8.90039L15.5754 31.1109H20.0254L26.7004 8.88867H22.2504Z" fill="black"/>
<path d="M31.5056 21.5553L33.3746 14.6664L35.2436 21.5553H31.5056ZM31.1496 8.88867L24.4746 31.1109H28.9246L30.4821 25.3627H36.2671L37.8246 31.1109H42.2746L35.5996 8.88867H31.1496Z" fill="black"/>
<path d="M52.6435 17.7183H48.95V12.6961H52.6435C54.2752 12.6961 55.2542 13.4516 55.2542 15.1998C55.2542 16.9479 54.2752 17.7183 52.6435 17.7183ZM59.3927 15.2146C59.3927 11.4072 56.9452 8.88867 52.6138 8.88867H44.5V31.1109H48.95V21.5553H50.9822L56.9452 31.1109H61.3952L55.2245 21.1702C57.8945 20.385 59.3927 18.1627 59.3927 15.2146Z" fill="black"/>
</g>
<defs>
<clipPath id="clip0_837_12206">
<rect width="89" height="40" fill="white"/>
</clipPath>
</defs>
</svg>
